<?xml version="1.0" encoding="utf-8"?>
<!-- Generator: Adobe Illustrator 25.4.1, SVG Export Plug-In . SVG Version: 6.00 Build 0)  -->
<svg version="1.1" id="Слой_1" xmlns="http://www.w3.org/2000/svg" xmlns:xlink="http://www.w3.org/1999/xlink" x="0px" y="0px"
	 viewBox="0 0 100 100" style="enable-background:new 0 0 100 100;" xml:space="preserve">
<style type="text/css">
	.st0{fill:#FFFFFF;}
</style>
<g>
	<path class="st0" d="M50,88.2c-21.1,0-38.2-17.1-38.2-38.2S28.9,11.8,50,11.8S88.2,28.9,88.2,50S71.1,88.2,50,88.2z M50,16.8
		c-18.3,0-33.2,14.9-33.2,33.2S31.7,83.2,50,83.2S83.2,68.3,83.2,50S68.3,16.8,50,16.8z"/>
</g>
<g>
	<path class="st0" d="M39.6,15.7c-0.4-6,4.1-11.1,9.6-11.5c5.9-0.5,11.4,4.5,11.4,11"/>
	<path class="st0" d="M37.1,15.9C36.6,8.6,42,2.2,49,1.7c3.4-0.3,7,1,9.7,3.4c2.8,2.6,4.4,6.3,4.4,10.1h-5c0-2.4-1-4.8-2.8-6.4
		c-1.7-1.5-3.8-2.3-5.9-2.1c-4.3,0.3-7.6,4.4-7.3,8.8L37.1,15.9z"/>
</g>
<g>
	<path class="st0" d="M82.3,78.9c-2.2,0-4.4-0.5-6.4-1.6l2.3-4.4c2.1,1.1,4.6,1.3,6.9,0.5c2.3-0.8,4.1-2.5,5.1-4.6
		c1-2.2,1-4.7,0.1-7c-0.9-2.3-2.7-4-5-4.9l1.8-4.7c3.6,1.4,6.3,4.1,7.8,7.7c1.4,3.5,1.4,7.5-0.1,11c-1.5,3.4-4.5,6.1-8,7.3
		C85.4,78.6,83.8,78.9,82.3,78.9z"/>
</g>
<g>
	<path class="st0" d="M17.6,78.9c-1.5,0-3.1-0.3-4.5-0.8c-3.6-1.2-6.5-3.9-8-7.3c-1.5-3.4-1.6-7.4-0.1-10.9c1.5-3.6,4.2-6.3,7.8-7.7
		l1.8,4.7c-2.3,0.9-4.1,2.7-5,5c-0.9,2.3-0.9,4.8,0.1,7c1,2.1,2.8,3.8,5.1,4.6c2.3,0.8,4.8,0.6,6.9-0.5l2.3,4.4
		C22,78.3,19.8,78.9,17.6,78.9z"/>
</g>
<g>
	<g>
		<path class="st0" d="M34.8,66.3c-7,0-12.7-5.7-12.7-12.7c0-1.8,0.3-3.5,1-5.1l0.4-0.9h22.6l0.4,0.9c0.7,1.6,1,3.3,1,5.1
			C47.5,60.6,41.8,66.3,34.8,66.3z M25.5,50.6c-0.3,0.9-0.4,2-0.4,3c0,5.3,4.4,9.7,9.7,9.7s9.7-4.4,9.7-9.7c0-1-0.1-2.1-0.4-3H25.5z
			"/>
	</g>
	<g>
		<path class="st0" d="M65.2,66.3c-7,0-12.7-5.7-12.7-12.7c0-7,5.7-12.7,12.7-12.7s12.7,5.7,12.7,12.7
			C77.9,60.6,72.2,66.3,65.2,66.3z M65.2,43.9c-5.3,0-9.7,4.4-9.7,9.7s4.4,9.7,9.7,9.7s9.7-4.4,9.7-9.7S70.5,43.9,65.2,43.9z"/>
	</g>
	<g>
		<rect x="45.3" y="54.1" class="st0" width="10.2" height="3.2"/>
	</g>
</g>
</svg>
